<svg xmlns="http://www.w3.org/2000/svg" width="216" height="130pt" viewBox="0 0 162 130"><path d="M64.918 55.04l21.953 27.722s-4.2 25.988-19.379 38.117C52.312 133.008 0 129.539 0 129.539s.96-5.875 2.785-14.074l23.95-28.48c1.003-1.192-.22-2.95-1.684-2.41L9.76 90.183c3.657-10.579 8.286-20.325 13.821-24.75 15.18-12.125 41.336-10.395 41.336-10.395zm96.203-47.161l-5.027-6.348a4.023 4.023 0 00-5.672-.648L91.574 46.027l-8.64-10.91c-1.29-1.629-3.832-1.324-4.707.559l-6.41 13.851L93.77 77.25l14.882-3.164c2.028-.43 2.891-2.844 1.606-4.469l-8.63-10.894 58.849-45.145a4.069 4.069 0 00.644-5.7zm0 0" fill="#b7ceb3" id="surface1"/></svg>