<svg xmlns="http://www.w3.org/2000/svg" width="130pt" height="130pt" viewBox="0 0 130 130"><path d="M0 102.906v10.844C0 122.71 21.836 130 48.75 130s48.75-7.29 48.75-16.25v-10.844c-10.484 7.39-29.656 10.844-48.75 10.844S10.484 110.297 0 102.906zM81.25 32.5c26.914 0 48.75-7.29 48.75-16.25S108.164 0 81.25 0 32.5 7.29 32.5 16.25 54.336 32.5 81.25 32.5zM0 76.273v13.102c0 8.96 21.836 16.25 48.75 16.25s48.75-7.29 48.75-16.25V76.273c-10.484 8.633-29.68 13.102-48.75 13.102S10.484 84.906 0 76.273zm105.625 2.793C120.172 76.246 130 71.016 130 65V54.156c-5.89 4.164-14.547 7.008-24.375 8.762zM48.75 40.625C21.836 40.625 0 49.715 0 60.938 0 72.16 21.836 81.25 48.75 81.25S97.5 72.16 97.5 60.937c0-11.222-21.836-20.312-48.75-20.312zm55.68 14.297C119.664 52.18 130 46.797 130 40.625V29.781c-9.016 6.375-24.5 9.805-40.805 10.617 7.493 3.63 13 8.504 15.235 14.524zm0 0" fill="#b7ceb3" id="surface1"/></svg>