<svg xmlns="http://www.w3.org/2000/svg" width="146pt" height="130pt" viewBox="0 0 146 130"><path d="M102.047 21.125l22.863 22.902c.965.965.965 2.54 0 3.504l-55.355 55.453-23.524 2.618c-3.144.351-5.804-2.313-5.449-5.461l2.61-23.563L98.55 21.125a2.473 2.473 0 013.496 0zm41.062-5.813l-12.367-12.39c-3.855-3.86-10.113-3.86-13.992 0l-8.973 8.988a2.483 2.483 0 000 3.504l22.864 22.898c.96.97 2.535.97 3.496 0l8.972-8.984c3.856-3.887 3.856-10.156 0-14.015zm-45.777 72.59v25.848h-81.11V32.5H74.47a3.1 3.1 0 002.156-.89l10.137-10.157c1.93-1.93.558-5.203-2.153-5.203H12.168C5.449 16.25 0 21.71 0 28.438v89.374C0 124.54 5.45 130 12.168 130h89.223c6.714 0 12.164-5.46 12.164-12.188V77.746c0-2.715-3.27-4.062-5.196-2.16L98.22 85.742c-.555.586-.887 1.348-.887 2.16zm0 0" fill="#b7ceb3" id="surface1"/></svg>