<svg width="96" height="57" fill="none" xmlns="http://www.w3.org/2000/svg"><mask id="path-1-outside-1" maskUnits="userSpaceOnUse" x="0" y="0" width="96" height="57" fill="#000"><path fill="#fff" d="M0 0h96v57H0z"/><path d="M28.852 20.063h-3.516V12.75H18.48v7.313h-3.516V3h3.515v6.914h6.856V3h3.516v17.063zm2.332-6.458c0-1.257.242-2.378.726-3.363.485-.984 1.18-1.746 2.086-2.285.914-.539 1.973-.809 3.176-.809 1.71 0 3.105.524 4.184 1.57 1.085 1.048 1.69 2.47 1.816 4.266l.023.868c0 1.945-.543 3.507-1.629 4.687-1.086 1.172-2.543 1.758-4.37 1.758-1.829 0-3.29-.586-4.383-1.758-1.086-1.172-1.63-2.766-1.63-4.781v-.152zm3.386.247c0 1.203.227 2.125.68 2.765.453.633 1.102.95 1.945.95.82 0 1.461-.313 1.922-.938.461-.633.692-1.64.692-3.024 0-1.18-.23-2.093-.692-2.742-.46-.648-1.11-.972-1.945-.972-.828 0-1.469.324-1.922.972-.453.64-.68 1.637-.68 2.989zm18.305 4.921c-.836 1.016-1.992 1.524-3.469 1.524-1.36 0-2.398-.39-3.117-1.172-.71-.781-1.074-1.926-1.09-3.434V7.383h3.387v8.191c0 1.32.602 1.98 1.805 1.98 1.148 0 1.937-.398 2.367-1.195V7.383h3.398v12.68H52.97l-.094-1.29zm12.703-2.214c0-.415-.207-.739-.621-.973-.406-.242-1.062-.457-1.969-.645-3.015-.632-4.523-1.914-4.523-3.843 0-1.125.465-2.063 1.394-2.813.938-.758 2.16-1.137 3.668-1.137 1.61 0 2.895.38 3.856 1.137.969.758 1.453 1.742 1.453 2.953h-3.387c0-.484-.156-.883-.468-1.195-.313-.32-.801-.48-1.465-.48-.57 0-1.012.128-1.325.386a1.22 1.22 0 00-.468.985c0 .375.175.68.527.914.36.226.96.425 1.805.597.843.164 1.554.352 2.132.563 1.79.656 2.684 1.793 2.684 3.41 0 1.156-.496 2.094-1.488 2.813-.992.71-2.274 1.066-3.844 1.066-1.062 0-2.008-.188-2.836-.563-.82-.382-1.465-.902-1.934-1.558-.468-.664-.703-1.38-.703-2.145h3.211c.032.602.254 1.063.668 1.383.414.32.97.48 1.664.48.649 0 1.137-.12 1.465-.363.336-.25.504-.574.504-.972zm11.32 3.738c-1.859 0-3.375-.57-4.546-1.711-1.165-1.14-1.746-2.66-1.746-4.559V13.7c0-1.273.246-2.41.738-3.41.492-1.008 1.187-1.781 2.086-2.32.906-.547 1.937-.82 3.093-.82 1.735 0 3.098.546 4.09 1.64 1 1.094 1.5 2.645 1.5 4.652v1.383H74.04c.11.828.438 1.492.984 1.992.555.5 1.254.75 2.098.75 1.305 0 2.324-.472 3.059-1.418l1.664 1.864c-.508.718-1.196 1.281-2.063 1.687-.867.399-1.828.598-2.883.598zM76.512 9.89c-.672 0-1.219.226-1.64.68-.415.452-.68 1.1-.798 1.945h4.711v-.27c-.016-.75-.219-1.328-.61-1.734-.39-.414-.944-.621-1.663-.621zM8.8 45.566c.626 0 1.134-.172 1.524-.515.39-.344.594-.801.61-1.371h3.175a4.373 4.373 0 01-.703 2.367c-.46.71-1.094 1.266-1.898 1.664-.797.39-1.68.586-2.649.586-1.812 0-3.242-.574-4.289-1.723C3.523 45.418 3 43.824 3 41.793v-.223c0-1.953.52-3.511 1.559-4.675 1.039-1.165 2.464-1.747 4.277-1.747 1.586 0 2.855.454 3.809 1.36.96.898 1.449 2.097 1.464 3.597h-3.175c-.016-.656-.22-1.187-.61-1.593-.39-.414-.906-.621-1.547-.621-.789 0-1.386.289-1.793.867-.398.57-.597 1.5-.597 2.789v.351c0 1.305.199 2.243.597 2.813.399.57 1.004.855 1.817.855zm10.817 2.497H16.22v-18h3.398v18zm8.637.234c-1.86 0-3.375-.57-4.547-1.711-1.164-1.14-1.746-2.66-1.746-4.559V41.7c0-1.273.246-2.41.738-3.41.492-1.008 1.188-1.781 2.086-2.32.906-.547 1.938-.82 3.094-.82 1.734 0 3.098.546 4.09 1.64 1 1.094 1.5 2.645 1.5 4.652v1.383h-8.075c.11.828.438 1.492.985 1.992.555.5 1.254.75 2.098.75 1.304 0 2.324-.472 3.058-1.418l1.664 1.864c-.508.718-1.195 1.281-2.062 1.687-.867.399-1.828.598-2.883.598zm-.387-10.406c-.672 0-1.219.226-1.64.68-.415.452-.68 1.1-.797 1.945h4.71v-.27c-.015-.75-.218-1.328-.609-1.734-.39-.414-.945-.621-1.664-.621zM42.75 48.063c-.156-.305-.27-.684-.34-1.137-.82.914-1.887 1.37-3.2 1.37-1.241 0-2.273-.358-3.093-1.077-.812-.719-1.219-1.625-1.219-2.719 0-1.344.496-2.375 1.489-3.094 1-.718 2.441-1.082 4.324-1.09h1.559v-.726c0-.586-.153-1.055-.458-1.406-.296-.352-.769-.528-1.417-.528-.57 0-1.02.137-1.348.41-.32.274-.48.649-.48 1.125H35.18c0-.734.226-1.414.68-2.039.453-.625 1.093-1.113 1.921-1.465.828-.359 1.758-.539 2.79-.539 1.562 0 2.8.395 3.714 1.184.922.781 1.383 1.883 1.383 3.305v5.496c.008 1.203.176 2.113.504 2.73v.2H42.75zm-2.8-2.356c.5 0 .96-.11 1.382-.328.422-.227.734-.527.938-.902v-2.18h-1.266c-1.695 0-2.598.586-2.707 1.758l-.012.199c0 .422.149.77.446 1.043.296.273.703.41 1.218.41zm11.437-10.324l.105 1.465c.906-1.133 2.121-1.7 3.645-1.7 1.343 0 2.343.395 3 1.184.656.79.992 1.969 1.008 3.54v8.19h-3.387v-8.109c0-.719-.156-1.238-.469-1.559-.312-.328-.832-.492-1.559-.492-.953 0-1.667.407-2.144 1.22v8.94h-3.387v-12.68h3.188zm13.91 12.68h-3.399v-12.68h3.399v12.68zm-3.598-15.961c0-.508.168-.926.504-1.254.344-.328.809-.492 1.395-.492.578 0 1.039.163 1.383.492.343.328.515.746.515 1.254 0 .515-.176.937-.527 1.265-.344.328-.801.492-1.371.492s-1.032-.164-1.383-.492c-.344-.328-.516-.75-.516-1.265zm9.516 3.281l.105 1.465c.907-1.133 2.121-1.7 3.645-1.7 1.344 0 2.344.395 3 1.184.656.79.992 1.969 1.008 3.54v8.19h-3.387v-8.109c0-.719-.156-1.238-.469-1.559-.312-.328-.832-.492-1.558-.492-.953 0-1.668.407-2.145 1.22v8.94h-3.387v-12.68h3.188zm9.844 6.246c0-1.945.46-3.512 1.382-4.7.93-1.187 2.18-1.78 3.75-1.78 1.391 0 2.473.476 3.246 1.43l.141-1.196h3.07V47.64c0 1.109-.254 2.074-.761 2.894-.5.82-1.207 1.446-2.121 1.875-.914.43-1.985.645-3.211.645a6.9 6.9 0 01-2.72-.563c-.882-.367-1.55-.844-2.003-1.43l1.5-2.062c.844.945 1.867 1.418 3.07 1.418.899 0 1.598-.242 2.098-.727.5-.476.75-1.156.75-2.039v-.68c-.781.883-1.809 1.325-3.082 1.325-1.524 0-2.758-.594-3.703-1.781-.938-1.196-1.406-2.778-1.406-4.746v-.141zm3.386.246c0 1.148.23 2.05.692 2.707.46.648 1.094.973 1.898.973 1.031 0 1.77-.387 2.215-1.16v-5.333c-.453-.773-1.184-1.16-2.191-1.16-.813 0-1.453.332-1.922.996-.461.664-.692 1.657-.692 2.977z"/></mask><path d="M28.852 20.063h-3.516V12.75H18.48v7.313h-3.516V3h3.515v6.914h6.856V3h3.516v17.063zm2.332-6.458c0-1.257.242-2.378.726-3.363.485-.984 1.18-1.746 2.086-2.285.914-.539 1.973-.809 3.176-.809 1.71 0 3.105.524 4.184 1.57 1.085 1.048 1.69 2.47 1.816 4.266l.023.868c0 1.945-.543 3.507-1.629 4.687-1.086 1.172-2.543 1.758-4.37 1.758-1.829 0-3.29-.586-4.383-1.758-1.086-1.172-1.63-2.766-1.63-4.781v-.152zm3.386.247c0 1.203.227 2.125.68 2.765.453.633 1.102.95 1.945.95.82 0 1.461-.313 1.922-.938.461-.633.692-1.64.692-3.024 0-1.18-.23-2.093-.692-2.742-.46-.648-1.11-.972-1.945-.972-.828 0-1.469.324-1.922.972-.453.64-.68 1.637-.68 2.989zm18.305 4.921c-.836 1.016-1.992 1.524-3.469 1.524-1.36 0-2.398-.39-3.117-1.172-.71-.781-1.074-1.926-1.09-3.434V7.383h3.387v8.191c0 1.32.602 1.98 1.805 1.98 1.148 0 1.937-.398 2.367-1.195V7.383h3.398v12.68H52.97l-.094-1.29zm12.703-2.214c0-.415-.207-.739-.621-.973-.406-.242-1.062-.457-1.969-.645-3.015-.632-4.523-1.914-4.523-3.843 0-1.125.465-2.063 1.394-2.813.938-.758 2.16-1.137 3.668-1.137 1.61 0 2.895.38 3.856 1.137.969.758 1.453 1.742 1.453 2.953h-3.387c0-.484-.156-.883-.468-1.195-.313-.32-.801-.48-1.465-.48-.57 0-1.012.128-1.325.386a1.22 1.22 0 00-.468.985c0 .375.175.68.527.914.36.226.96.425 1.805.597.843.164 1.554.352 2.132.563 1.79.656 2.684 1.793 2.684 3.41 0 1.156-.496 2.094-1.488 2.813-.992.71-2.274 1.066-3.844 1.066-1.062 0-2.008-.188-2.836-.563-.82-.382-1.465-.902-1.934-1.558-.468-.664-.703-1.38-.703-2.145h3.211c.032.602.254 1.063.668 1.383.414.32.97.48 1.664.48.649 0 1.137-.12 1.465-.363.336-.25.504-.574.504-.972zm11.32 3.738c-1.859 0-3.375-.57-4.546-1.711-1.165-1.14-1.746-2.66-1.746-4.559V13.7c0-1.273.246-2.41.738-3.41.492-1.008 1.187-1.781 2.086-2.32.906-.547 1.937-.82 3.093-.82 1.735 0 3.098.546 4.09 1.64 1 1.094 1.5 2.645 1.5 4.652v1.383H74.04c.11.828.438 1.492.984 1.992.555.5 1.254.75 2.098.75 1.305 0 2.324-.472 3.059-1.418l1.664 1.864c-.508.718-1.196 1.281-2.063 1.687-.867.399-1.828.598-2.883.598zM76.512 9.89c-.672 0-1.219.226-1.64.68-.415.452-.68 1.1-.798 1.945h4.711v-.27c-.016-.75-.219-1.328-.61-1.734-.39-.414-.944-.621-1.663-.621zM8.8 45.566c.626 0 1.134-.172 1.524-.515.39-.344.594-.801.61-1.371h3.175a4.373 4.373 0 01-.703 2.367c-.46.71-1.094 1.266-1.898 1.664-.797.39-1.68.586-2.649.586-1.812 0-3.242-.574-4.289-1.723C3.523 45.418 3 43.824 3 41.793v-.223c0-1.953.52-3.511 1.559-4.675 1.039-1.165 2.464-1.747 4.277-1.747 1.586 0 2.855.454 3.809 1.36.96.898 1.449 2.097 1.464 3.597h-3.175c-.016-.656-.22-1.187-.61-1.593-.39-.414-.906-.621-1.547-.621-.789 0-1.386.289-1.793.867-.398.57-.597 1.5-.597 2.789v.351c0 1.305.199 2.243.597 2.813.399.57 1.004.855 1.817.855zm10.817 2.497H16.22v-18h3.398v18zm8.637.234c-1.86 0-3.375-.57-4.547-1.711-1.164-1.14-1.746-2.66-1.746-4.559V41.7c0-1.273.246-2.41.738-3.41.492-1.008 1.188-1.781 2.086-2.32.906-.547 1.938-.82 3.094-.82 1.734 0 3.098.546 4.09 1.64 1 1.094 1.5 2.645 1.5 4.652v1.383h-8.075c.11.828.438 1.492.985 1.992.555.5 1.254.75 2.098.75 1.304 0 2.324-.472 3.058-1.418l1.664 1.864c-.508.718-1.195 1.281-2.062 1.687-.867.399-1.828.598-2.883.598zm-.387-10.406c-.672 0-1.219.226-1.64.68-.415.452-.68 1.1-.797 1.945h4.71v-.27c-.015-.75-.218-1.328-.609-1.734-.39-.414-.945-.621-1.664-.621zM42.75 48.063c-.156-.305-.27-.684-.34-1.137-.82.914-1.887 1.37-3.2 1.37-1.241 0-2.273-.358-3.093-1.077-.812-.719-1.219-1.625-1.219-2.719 0-1.344.496-2.375 1.489-3.094 1-.718 2.441-1.082 4.324-1.09h1.559v-.726c0-.586-.153-1.055-.458-1.406-.296-.352-.769-.528-1.417-.528-.57 0-1.02.137-1.348.41-.32.274-.48.649-.48 1.125H35.18c0-.734.226-1.414.68-2.039.453-.625 1.093-1.113 1.921-1.465.828-.359 1.758-.539 2.79-.539 1.562 0 2.8.395 3.714 1.184.922.781 1.383 1.883 1.383 3.305v5.496c.008 1.203.176 2.113.504 2.73v.2H42.75zm-2.8-2.356c.5 0 .96-.11 1.382-.328.422-.227.734-.527.938-.902v-2.18h-1.266c-1.695 0-2.598.586-2.707 1.758l-.012.199c0 .422.149.77.446 1.043.296.273.703.41 1.218.41zm11.437-10.324l.105 1.465c.906-1.133 2.121-1.7 3.645-1.7 1.343 0 2.343.395 3 1.184.656.79.992 1.969 1.008 3.54v8.19h-3.387v-8.109c0-.719-.156-1.238-.469-1.559-.312-.328-.832-.492-1.559-.492-.953 0-1.667.407-2.144 1.22v8.94h-3.387v-12.68h3.188zm13.91 12.68h-3.399v-12.68h3.399v12.68zm-3.598-15.961c0-.508.168-.926.504-1.254.344-.328.809-.492 1.395-.492.578 0 1.039.163 1.383.492.343.328.515.746.515 1.254 0 .515-.176.937-.527 1.265-.344.328-.801.492-1.371.492s-1.032-.164-1.383-.492c-.344-.328-.516-.75-.516-1.265zm9.516 3.281l.105 1.465c.907-1.133 2.121-1.7 3.645-1.7 1.344 0 2.344.395 3 1.184.656.79.992 1.969 1.008 3.54v8.19h-3.387v-8.109c0-.719-.156-1.238-.469-1.559-.312-.328-.832-.492-1.558-.492-.953 0-1.668.407-2.145 1.22v8.94h-3.387v-12.68h3.188zm9.844 6.246c0-1.945.46-3.512 1.382-4.7.93-1.187 2.18-1.78 3.75-1.78 1.391 0 2.473.476 3.246 1.43l.141-1.196h3.07V47.64c0 1.109-.254 2.074-.761 2.894-.5.82-1.207 1.446-2.121 1.875-.914.43-1.985.645-3.211.645a6.9 6.9 0 01-2.72-.563c-.882-.367-1.55-.844-2.003-1.43l1.5-2.062c.844.945 1.867 1.418 3.07 1.418.899 0 1.598-.242 2.098-.727.5-.476.75-1.156.75-2.039v-.68c-.781.883-1.809 1.325-3.082 1.325-1.524 0-2.758-.594-3.703-1.781-.938-1.196-1.406-2.778-1.406-4.746v-.141zm3.386.246c0 1.148.23 2.05.692 2.707.46.648 1.094.973 1.898.973 1.031 0 1.77-.387 2.215-1.16v-5.333c-.453-.773-1.184-1.16-2.191-1.16-.813 0-1.453.332-1.922.996-.461.664-.692 1.657-.692 2.977z" fill="#FFFDFD"/><path d="M28.852 20.063h-3.516V12.75H18.48v7.313h-3.516V3h3.515v6.914h6.856V3h3.516v17.063zm2.332-6.458c0-1.257.242-2.378.726-3.363.485-.984 1.18-1.746 2.086-2.285.914-.539 1.973-.809 3.176-.809 1.71 0 3.105.524 4.184 1.57 1.085 1.048 1.69 2.47 1.816 4.266l.023.868c0 1.945-.543 3.507-1.629 4.687-1.086 1.172-2.543 1.758-4.37 1.758-1.829 0-3.29-.586-4.383-1.758-1.086-1.172-1.63-2.766-1.63-4.781v-.152zm3.386.247c0 1.203.227 2.125.68 2.765.453.633 1.102.95 1.945.95.82 0 1.461-.313 1.922-.938.461-.633.692-1.64.692-3.024 0-1.18-.23-2.093-.692-2.742-.46-.648-1.11-.972-1.945-.972-.828 0-1.469.324-1.922.972-.453.64-.68 1.637-.68 2.989zm18.305 4.921c-.836 1.016-1.992 1.524-3.469 1.524-1.36 0-2.398-.39-3.117-1.172-.71-.781-1.074-1.926-1.09-3.434V7.383h3.387v8.191c0 1.32.602 1.98 1.805 1.98 1.148 0 1.937-.398 2.367-1.195V7.383h3.398v12.68H52.97l-.094-1.29zm12.703-2.214c0-.415-.207-.739-.621-.973-.406-.242-1.062-.457-1.969-.645-3.015-.632-4.523-1.914-4.523-3.843 0-1.125.465-2.063 1.394-2.813.938-.758 2.16-1.137 3.668-1.137 1.61 0 2.895.38 3.856 1.137.969.758 1.453 1.742 1.453 2.953h-3.387c0-.484-.156-.883-.468-1.195-.313-.32-.801-.48-1.465-.48-.57 0-1.012.128-1.325.386a1.22 1.22 0 00-.468.985c0 .375.175.68.527.914.36.226.96.425 1.805.597.843.164 1.554.352 2.132.563 1.79.656 2.684 1.793 2.684 3.41 0 1.156-.496 2.094-1.488 2.813-.992.71-2.274 1.066-3.844 1.066-1.062 0-2.008-.188-2.836-.563-.82-.382-1.465-.902-1.934-1.558-.468-.664-.703-1.38-.703-2.145h3.211c.032.602.254 1.063.668 1.383.414.32.97.48 1.664.48.649 0 1.137-.12 1.465-.363.336-.25.504-.574.504-.972zm11.32 3.738c-1.859 0-3.375-.57-4.546-1.711-1.165-1.14-1.746-2.66-1.746-4.559V13.7c0-1.273.246-2.41.738-3.41.492-1.008 1.187-1.781 2.086-2.32.906-.547 1.937-.82 3.093-.82 1.735 0 3.098.546 4.09 1.64 1 1.094 1.5 2.645 1.5 4.652v1.383H74.04c.11.828.438 1.492.984 1.992.555.5 1.254.75 2.098.75 1.305 0 2.324-.472 3.059-1.418l1.664 1.864c-.508.718-1.196 1.281-2.063 1.687-.867.399-1.828.598-2.883.598zM76.512 9.89c-.672 0-1.219.226-1.64.68-.415.452-.68 1.1-.798 1.945h4.711v-.27c-.016-.75-.219-1.328-.61-1.734-.39-.414-.944-.621-1.663-.621zM8.8 45.566c.626 0 1.134-.172 1.524-.515.39-.344.594-.801.61-1.371h3.175a4.373 4.373 0 01-.703 2.367c-.46.71-1.094 1.266-1.898 1.664-.797.39-1.68.586-2.649.586-1.812 0-3.242-.574-4.289-1.723C3.523 45.418 3 43.824 3 41.793v-.223c0-1.953.52-3.511 1.559-4.675 1.039-1.165 2.464-1.747 4.277-1.747 1.586 0 2.855.454 3.809 1.36.96.898 1.449 2.097 1.464 3.597h-3.175c-.016-.656-.22-1.187-.61-1.593-.39-.414-.906-.621-1.547-.621-.789 0-1.386.289-1.793.867-.398.57-.597 1.5-.597 2.789v.351c0 1.305.199 2.243.597 2.813.399.57 1.004.855 1.817.855zm10.817 2.497H16.22v-18h3.398v18zm8.637.234c-1.86 0-3.375-.57-4.547-1.711-1.164-1.14-1.746-2.66-1.746-4.559V41.7c0-1.273.246-2.41.738-3.41.492-1.008 1.188-1.781 2.086-2.32.906-.547 1.938-.82 3.094-.82 1.734 0 3.098.546 4.09 1.64 1 1.094 1.5 2.645 1.5 4.652v1.383h-8.075c.11.828.438 1.492.985 1.992.555.5 1.254.75 2.098.75 1.304 0 2.324-.472 3.058-1.418l1.664 1.864c-.508.718-1.195 1.281-2.062 1.687-.867.399-1.828.598-2.883.598zm-.387-10.406c-.672 0-1.219.226-1.64.68-.415.452-.68 1.1-.797 1.945h4.71v-.27c-.015-.75-.218-1.328-.609-1.734-.39-.414-.945-.621-1.664-.621zM42.75 48.063c-.156-.305-.27-.684-.34-1.137-.82.914-1.887 1.37-3.2 1.37-1.241 0-2.273-.358-3.093-1.077-.812-.719-1.219-1.625-1.219-2.719 0-1.344.496-2.375 1.489-3.094 1-.718 2.441-1.082 4.324-1.09h1.559v-.726c0-.586-.153-1.055-.458-1.406-.296-.352-.769-.528-1.417-.528-.57 0-1.02.137-1.348.41-.32.274-.48.649-.48 1.125H35.18c0-.734.226-1.414.68-2.039.453-.625 1.093-1.113 1.921-1.465.828-.359 1.758-.539 2.79-.539 1.562 0 2.8.395 3.714 1.184.922.781 1.383 1.883 1.383 3.305v5.496c.008 1.203.176 2.113.504 2.73v.2H42.75zm-2.8-2.356c.5 0 .96-.11 1.382-.328.422-.227.734-.527.938-.902v-2.18h-1.266c-1.695 0-2.598.586-2.707 1.758l-.012.199c0 .422.149.77.446 1.043.296.273.703.41 1.218.41zm11.437-10.324l.105 1.465c.906-1.133 2.121-1.7 3.645-1.7 1.343 0 2.343.395 3 1.184.656.79.992 1.969 1.008 3.54v8.19h-3.387v-8.109c0-.719-.156-1.238-.469-1.559-.312-.328-.832-.492-1.559-.492-.953 0-1.667.407-2.144 1.22v8.94h-3.387v-12.68h3.188zm13.91 12.68h-3.399v-12.68h3.399v12.68zm-3.598-15.961c0-.508.168-.926.504-1.254.344-.328.809-.492 1.395-.492.578 0 1.039.163 1.383.492.343.328.515.746.515 1.254 0 .515-.176.937-.527 1.265-.344.328-.801.492-1.371.492s-1.032-.164-1.383-.492c-.344-.328-.516-.75-.516-1.265zm9.516 3.281l.105 1.465c.907-1.133 2.121-1.7 3.645-1.7 1.344 0 2.344.395 3 1.184.656.79.992 1.969 1.008 3.54v8.19h-3.387v-8.109c0-.719-.156-1.238-.469-1.559-.312-.328-.832-.492-1.558-.492-.953 0-1.668.407-2.145 1.22v8.94h-3.387v-12.68h3.188zm9.844 6.246c0-1.945.46-3.512 1.382-4.7.93-1.187 2.18-1.78 3.75-1.78 1.391 0 2.473.476 3.246 1.43l.141-1.196h3.07V47.64c0 1.109-.254 2.074-.761 2.894-.5.82-1.207 1.446-2.121 1.875-.914.43-1.985.645-3.211.645a6.9 6.9 0 01-2.72-.563c-.882-.367-1.55-.844-2.003-1.43l1.5-2.062c.844.945 1.867 1.418 3.07 1.418.899 0 1.598-.242 2.098-.727.5-.476.75-1.156.75-2.039v-.68c-.781.883-1.809 1.325-3.082 1.325-1.524 0-2.758-.594-3.703-1.781-.938-1.196-1.406-2.778-1.406-4.746v-.141zm3.386.246c0 1.148.23 2.05.692 2.707.46.648 1.094.973 1.898.973 1.031 0 1.77-.387 2.215-1.16v-5.333c-.453-.773-1.184-1.16-2.191-1.16-.813 0-1.453.332-1.922.996-.461.664-.692 1.657-.692 2.977z" stroke="#0D5701" stroke-width="6" mask="url(#path-1-outside-1)"/></svg>