<svg xmlns="http://www.w3.org/2000/svg" width="49pt" height="130pt" viewBox="0 0 49 130"><path d="M24.5 0c9.02 0 16.332 7.277 16.332 16.25 0 8.973-7.312 16.25-16.332 16.25S8.168 25.223 8.168 16.25C8.168 7.277 15.48 0 24.5 0m12.25 36.563h-2.898a22.535 22.535 0 01-18.704 0H12.25C5.484 36.563 0 42.02 0 48.75v34.531c0 3.367 2.742 6.094 6.125 6.094h4.082v34.531c0 3.367 2.742 6.094 6.125 6.094h16.336c3.383 0 6.125-2.727 6.125-6.094V89.375h4.082c3.383 0 6.125-2.727 6.125-6.094V48.75c0-6.73-5.484-12.188-12.25-12.188zm0 0" fill="#b7ceb3" id="surface1"/></svg>