<svg xmlns="http://www.w3.org/2000/svg" width="20" height="14pt" viewBox="0 0 15 14"><path d="M7.5 0C5.687 0 4.219 1.543 4.219 3.445c0 1.54 2.144 4.344 2.965 5.36a.4.4 0 00.632 0c.82-1.016 2.965-3.82 2.965-5.36C10.781 1.543 9.312 0 7.5 0zm0 4.594c-.605 0-1.094-.516-1.094-1.149 0-.632.489-1.148 1.094-1.148.605 0 1.094.515 1.094 1.148 0 .633-.489 1.149-1.094 1.149zM.523 5.906A.874.874 0 000 6.72v6.843c0 .31.297.52.57.407l3.598-1.719V5.875a8.503 8.503 0 01-.555-1.266zM7.5 9.836c-.367 0-.715-.172-.95-.465A28.101 28.101 0 015 7.273v4.977L10 14V7.273a27.05 27.05 0 01-1.55 2.098 1.218 1.218 0 01-.95.465zm6.93-5.43l-3.598 1.719V14l3.645-1.531a.874.874 0 00.523-.813V4.812c0-.308-.297-.519-.57-.406zm0 0" fill="#264b20"/></svg>