<svg xmlns="http://www.w3.org/2000/svg" width="130pt" height="130pt" viewBox="0 0 130 130"><path d="M26.406 56.875H6.094A6.092 6.092 0 000 62.969v60.937A6.092 6.092 0 006.094 130h20.312a6.092 6.092 0 006.094-6.094V62.97a6.092 6.092 0 00-6.094-6.094zM16.25 119.844a6.092 6.092 0 01-6.094-6.094 6.092 6.092 0 016.094-6.094 6.092 6.092 0 016.094 6.094 6.092 6.092 0 01-6.094 6.094zM97.5 20.68c0 10.77-6.594 16.812-8.45 24.008h25.829c8.48 0 15.082 7.042 15.121 14.75.02 4.554-1.918 9.46-4.938 12.492l-.027.027c2.5 5.926 2.094 14.23-2.363 20.18 2.203 6.574-.016 14.652-4.16 18.98 1.093 4.469.57 8.27-1.559 11.332C111.77 129.895 98.926 130 88.066 130h-.722c-12.262-.004-22.297-4.469-30.36-8.055-4.05-1.804-9.347-4.035-13.367-4.11a3.047 3.047 0 01-2.992-3.046V60.512c0-.813.324-1.59.902-2.164 10.059-9.938 14.383-20.461 22.63-28.72 3.757-3.765 5.124-9.452 6.445-14.952C71.73 9.976 74.094 0 79.219 0 85.313 0 97.5 2.031 97.5 20.68zm0 0" fill="#b7ceb3" id="surface1"/></svg>