<svg xmlns="http://www.w3.org/2000/svg" width="20" height="17pt" viewBox="0 0 15 17"><path d="M10.738 9.707c-.984 0-1.457.508-3.066.508-1.613 0-2.086-.508-3.07-.508-2.54 0-4.602 1.922-4.602 4.29v.816c0 .843.738 1.535 1.645 1.535h12.05c.907 0 1.645-.692 1.645-1.535v-.817c0-2.367-2.063-4.289-4.602-4.289zm2.957 5.105H1.645v-.816c0-1.52 1.324-2.758 2.957-2.758.5 0 1.312.512 3.07.512 1.77 0 2.562-.512 3.066-.512 1.633 0 2.957 1.239 2.957 2.758zM7.672 9.195c2.723 0 4.933-2.054 4.933-4.597C12.605 2.055 10.395 0 7.672 0 4.945 0 2.738 2.055 2.738 4.598c0 2.543 2.207 4.597 4.934 4.597zm0-7.664c1.808 0 3.289 1.38 3.289 3.067 0 1.683-1.48 3.066-3.29 3.066-1.812 0-3.288-1.383-3.288-3.066 0-1.688 1.476-3.067 3.289-3.067zm0 0" fill="#264b20"/></svg>